<svg version="1.1" id="Capa_1" xmlns="http://www.w3.org/2000/svg" xmlns:xlink="http://www.w3.org/1999/xlink" 
	 viewBox="0 0 489 489" xml:space="preserve">
<g>
	<path d="M449.55,240.1c0-31.7-52.3-58.9-126.7-70.3C311.25,93.2,286.45,0,234.25,0c-85.1,0-91.4,127.4-91.7,174.1
		c-61.6,13.1-103.1,37.8-103.1,66c0,17.2,63.3,202.1,63.3,202.1c1,5.2,5.2,9.4,9.4,11.4c47.9,26,92.6,35.4,132.1,35.4
		c77,0,130-33.3,134.2-37.5c4.2-2.1,7.3-6.2,8.3-10.4C386.55,441.1,449.55,254.5,449.55,240.1z M403.95,240.1
		c0,12.3-28.1,23.1-70.8,29.5l-0.7-1.2c0,0-0.9-24.4-4.6-58.5C373.55,216.1,403.95,227.3,403.95,240.1z M226.75,42.8
		c25.7,0,42.4,62.5,52.6,122.4c-11.3-0.7-23-1.1-34.9-1.1c-22,0-43.1,1.3-63,3.7l0.7-0.4C182.15,167.3,179.95,42.8,226.75,42.8z
		 M244.35,204.6c14.1,0,27.9,0.4,40.9,1.2c5,38,7,67.6,7,67.6l0.5,0.4c-15.3,1.1-31.6,1.7-48.5,1.7c-88.1,0-159.6-15.9-159.6-35.5
		C84.85,220.5,156.25,204.6,244.35,204.6z M350.15,421.4c-23.9,12.5-111.3,52-212.2,0l-37.9-127.2c37.1,13.6,88.1,22,144.4,22
		c56.2,0,107.1-8.4,144.1-21.9L350.15,421.4z"/>
</g>
</svg>